<svg id="svg" xmlns="http://www.w3.org/2000/svg" xmlns:xlink="http://www.w3.org/1999/xlink" width="400" height="231.44654088050316" viewBox="0, 0, 400,231.44654088050316"><g id="svgg"><path id="path0" d="M1.887 0.943 C 1.887 1.462,1.462 1.887,0.943 1.887 C 0.109 1.887,0.000 12.124,0.000 90.252 C 0.000 168.379,0.109 178.616,0.943 178.616 C 1.462 178.616,1.887 179.041,1.887 179.560 C 1.887 180.389,6.953 180.503,43.711 180.503 L 85.535 180.503 85.535 177.987 L 85.535 175.472 45.283 175.472 L 5.031 175.472 5.031 90.252 L 5.031 5.031 45.283 5.031 L 85.535 5.031 85.535 2.516 L 85.535 0.000 43.711 0.000 C 6.953 0.000,1.887 0.114,1.887 0.943 M105.660 2.516 L 105.660 5.031 250.314 5.031 L 394.969 5.031 394.969 90.252 L 394.969 175.472 250.314 175.472 L 105.660 175.472 105.660 177.987 L 105.660 180.503 251.572 180.503 C 380.853 180.503,397.484 180.396,397.484 179.560 C 397.484 179.036,398.043 178.616,398.742 178.616 C 399.994 178.616,400.000 178.197,400.000 90.252 C 400.000 2.306,399.994 1.887,398.742 1.887 C 398.043 1.887,397.484 1.468,397.484 0.943 C 397.484 0.108,380.853 0.000,251.572 0.000 L 105.660 0.000 105.660 2.516 M93.082 13.836 L 93.082 25.786 124.528 25.786 L 155.975 25.786 155.975 55.660 L 155.975 85.535 158.491 85.535 L 161.006 85.535 161.006 53.145 L 161.006 20.755 129.560 20.755 L 98.113 20.755 98.113 11.321 L 98.113 1.887 95.597 1.887 L 93.082 1.887 93.082 13.836 M20.755 89.308 L 20.755 157.862 23.270 157.862 L 25.786 157.862 25.786 91.824 L 25.786 25.786 54.403 25.786 L 83.019 25.786 83.019 54.088 L 83.019 82.390 58.176 82.390 L 33.333 82.390 33.333 84.906 L 33.333 87.421 60.692 87.421 L 88.050 87.421 88.050 54.088 L 88.050 20.755 54.403 20.755 L 20.755 20.755 20.755 89.308 M168.553 23.270 L 168.553 25.786 198.428 25.786 L 228.302 25.786 228.302 38.679 L 228.302 51.572 211.321 51.572 C 201.981 51.572,194.340 51.787,194.340 52.049 C 194.340 52.485,216.229 74.361,225.632 83.324 L 229.565 87.073 231.282 85.356 L 232.999 83.639 219.492 70.121 L 205.986 56.604 219.660 56.604 L 233.333 56.604 233.333 38.679 L 233.333 20.755 200.943 20.755 L 168.553 20.755 168.553 23.270 M240.881 23.270 L 240.881 25.786 271.069 25.786 L 301.258 25.786 301.258 55.660 L 301.258 85.535 303.774 85.535 L 306.289 85.535 306.289 53.145 L 306.289 20.755 273.585 20.755 L 240.881 20.755 240.881 23.270 M341.981 37.233 C 323.734 46.275,308.805 53.848,308.805 54.061 C 308.805 54.346,372.787 86.246,375.424 87.276 C 375.662 87.369,376.332 86.447,376.914 85.227 L 377.972 83.009 349.363 68.709 C 333.629 60.844,320.755 54.265,320.755 54.088 C 320.755 53.912,333.629 47.332,349.363 39.467 L 377.972 25.167 376.920 22.961 C 375.593 20.180,380.132 18.326,341.981 37.233 M240.881 95.597 L 240.881 98.113 271.069 98.113 L 301.258 98.113 301.258 111.006 L 301.258 123.899 283.809 123.899 L 266.360 123.899 284.273 141.820 L 302.185 159.740 304.071 157.854 L 305.957 155.968 292.450 142.450 L 278.942 128.931 292.616 128.931 L 306.289 128.931 306.289 111.006 L 306.289 93.082 273.585 93.082 L 240.881 93.082 240.881 95.597 M313.836 95.597 L 313.836 98.113 345.283 98.113 L 376.730 98.113 376.730 95.597 L 376.730 93.082 345.283 93.082 L 313.836 93.082 313.836 95.597 M93.082 136.792 L 93.082 178.616 95.597 178.616 L 98.113 178.616 98.113 169.497 L 98.113 160.377 128.302 160.377 L 158.491 160.377 158.491 157.862 L 158.491 155.346 128.302 155.346 L 98.113 155.346 98.113 125.157 L 98.113 94.969 95.597 94.969 L 93.082 94.969 93.082 136.792 M166.038 127.673 L 166.038 160.377 199.686 160.377 L 233.333 160.377 233.333 127.673 L 233.333 94.969 230.818 94.969 L 228.302 94.969 228.302 125.157 L 228.302 155.346 199.686 155.346 L 171.069 155.346 171.069 125.157 L 171.069 94.969 168.553 94.969 L 166.038 94.969 166.038 127.673 M313.836 126.415 L 313.836 128.931 345.283 128.931 L 376.730 128.931 376.730 126.415 L 376.730 123.899 345.283 123.899 L 313.836 123.899 313.836 126.415 M33.333 157.862 L 33.333 160.377 59.434 160.377 L 85.535 160.377 85.535 157.862 L 85.535 155.346 59.434 155.346 L 33.333 155.346 33.333 157.862 M313.836 157.862 L 313.836 160.377 345.283 160.377 L 376.730 160.377 376.730 157.862 L 376.730 155.346 345.283 155.346 L 313.836 155.346 313.836 157.862 M22.642 196.226 C 22.642 196.925,22.222 197.484,21.698 197.484 C 20.885 197.484,20.755 199.616,20.755 212.893 L 20.755 228.302 23.270 228.302 L 25.786 228.302 25.786 214.151 L 25.786 200.000 54.403 200.000 L 83.019 200.000 83.019 214.151 L 83.019 228.302 85.535 228.302 L 88.050 228.302 88.050 212.893 C 88.050 197.904,88.016 197.484,86.792 197.484 C 85.954 197.484,85.535 197.065,85.535 196.226 C 85.535 194.985,85.115 194.969,54.088 194.969 C 23.061 194.969,22.642 194.985,22.642 196.226 M168.553 196.226 C 168.553 197.065,168.134 197.484,167.296 197.484 C 166.087 197.484,166.038 197.904,166.038 208.176 L 166.038 218.868 168.553 218.868 L 171.069 218.868 171.069 209.434 L 171.069 200.000 201.258 200.000 L 231.447 200.000 231.447 197.484 L 231.447 194.969 200.000 194.969 C 168.973 194.969,168.553 194.985,168.553 196.226 M240.881 197.484 L 240.881 200.000 272.642 200.000 L 304.403 200.000 304.403 197.484 L 304.403 194.969 272.642 194.969 L 240.881 194.969 240.881 197.484 M313.836 196.226 C 313.836 196.925,313.417 197.484,312.893 197.484 C 312.080 197.484,311.950 199.651,311.950 213.208 C 311.950 226.765,312.080 228.931,312.893 228.931 C 313.417 228.931,313.836 229.490,313.836 230.189 C 313.836 231.430,314.256 231.447,345.283 231.447 L 376.730 231.447 376.730 228.931 L 376.730 226.415 346.855 226.415 L 316.981 226.415 316.981 213.208 L 316.981 200.000 346.855 200.000 L 376.730 200.000 376.730 197.484 L 376.730 194.969 345.283 194.969 C 314.256 194.969,313.836 194.985,313.836 196.226 M93.082 213.208 C 93.082 228.512,93.115 228.931,94.340 228.931 C 95.178 228.931,95.597 229.350,95.597 230.189 C 95.597 231.430,96.017 231.447,127.044 231.447 C 158.071 231.447,158.491 231.430,158.491 230.189 C 158.491 229.350,158.910 228.931,159.748 228.931 C 160.973 228.931,161.006 228.512,161.006 213.208 L 161.006 197.484 158.491 197.484 L 155.975 197.484 155.975 211.950 L 155.975 226.415 127.044 226.415 L 98.113 226.415 98.113 211.950 L 98.113 197.484 95.597 197.484 L 93.082 197.484 93.082 213.208 M189.083 207.940 C 188.485 209.193,188.079 210.292,188.181 210.381 C 188.558 210.713,196.614 214.671,202.939 217.632 L 209.483 220.695 210.514 218.532 C 211.770 215.898,212.935 216.829,200.794 210.763 C 188.787 204.764,190.411 205.156,189.083 207.940 M51.572 217.925 L 51.572 228.302 54.088 228.302 L 56.604 228.302 56.604 217.925 L 56.604 207.547 54.088 207.547 L 51.572 207.547 51.572 217.925 M228.302 216.981 L 228.302 226.415 198.428 226.415 L 168.553 226.415 168.553 228.931 L 168.553 231.447 200.000 231.447 C 231.027 231.447,231.447 231.430,231.447 230.189 C 231.447 229.490,231.866 228.931,232.390 228.931 C 233.192 228.931,233.333 227.324,233.333 218.239 L 233.333 207.547 230.818 207.547 L 228.302 207.547 228.302 216.981 M269.811 213.208 L 269.811 218.868 272.327 218.868 L 274.843 218.868 274.843 213.208 L 274.843 207.547 272.327 207.547 L 269.811 207.547 269.811 213.208 M240.881 228.931 L 240.881 231.447 272.642 231.447 L 304.403 231.447 304.403 228.931 L 304.403 226.415 272.642 226.415 L 240.881 226.415 240.881 228.931 " stroke="none" fill="#000000" fill-rule="evenodd"></path></g></svg>